<svg width="33" height="32" viewBox="0 0 33 32" fill="none" xmlns="http://www.w3.org/2000/svg">
<path d="M14.4038 13.7867C14.4878 13.8706 14.6314 13.8112 14.6314 13.6924V5.99955C14.6314 5.63136 14.9299 5.33289 15.2981 5.33289H17.0314C17.3996 5.33289 17.6981 5.63136 17.6981 5.99955V13.6916C17.6981 13.8104 17.8417 13.8699 17.9257 13.7859L20.1247 11.5869C20.385 11.3266 20.8071 11.3266 21.0675 11.5869L22.2931 12.8126C22.5535 13.0729 22.5535 13.4951 22.2931 13.7554L16.6363 19.4123C16.3759 19.6726 15.9533 19.6731 15.693 19.4128L10.0361 13.7559C9.77578 13.4956 9.77578 13.0734 10.0361 12.8131L11.2618 11.5874C11.5221 11.3271 11.9442 11.3271 12.2046 11.5874L14.4038 13.7867Z" fill="#F5F5F5"/>
<path d="M6.18132 20.267C5.81313 20.267 5.51465 20.5654 5.51465 20.9336V25.9997C5.51465 26.3678 5.81312 26.6663 6.18132 26.6663H26.1813C26.5495 26.6663 26.848 26.3678 26.848 25.9997V20.9336C26.848 20.5654 26.5495 20.267 26.1813 20.267H24.448C24.0798 20.267 23.7813 20.5654 23.7813 20.9336V22.9333C23.7813 23.3014 23.4828 23.5999 23.1146 23.5999H9.24772C8.87953 23.5999 8.58105 23.3014 8.58105 22.9333V20.9336C8.58105 20.5654 8.28258 20.267 7.91439 20.267H6.18132Z" fill="#F5F5F5"/>
</svg>
